<svg width="24" height="24" viewBox="0 0 24 24" fill="none" xmlns="http://www.w3.org/2000/svg">
  <path d="M4.75 18.35V9.35L7.7 4.6L12 6.7L16.3 4.6L19.25 9.35V18.35L15.1 20.1H8.9L4.75 18.35Z" stroke="currentColor" stroke-width="1.9" stroke-linejoin="round"/>
  <path d="M7.95 11.6H10.1C10.9 11.6 11.55 12.25 11.55 13.05V14.35C11.55 15.15 10.9 15.8 10.1 15.8H7.95C7.15 15.8 6.5 15.15 6.5 14.35V13.05C6.5 12.25 7.15 11.6 7.95 11.6Z" stroke="currentColor" stroke-width="1.7"/>
  <path d="M13.9 11.6H16.05C16.85 11.6 17.5 12.25 17.5 13.05V14.35C17.5 15.15 16.85 15.8 16.05 15.8H13.9C13.1 15.8 12.45 15.15 12.45 14.35V13.05C12.45 12.25 13.1 11.6 13.9 11.6Z" stroke="currentColor" stroke-width="1.7"/>
  <path d="M11.55 13.7H12.45" stroke="currentColor" stroke-width="1.7" stroke-linecap="round"/>
  <path d="M10.3 17.55C10.85 18.15 11.35 18.45 12 18.45C12.65 18.45 13.15 18.15 13.7 17.55" stroke="currentColor" stroke-width="1.7" stroke-linecap="round"/>
</svg>