<svg width="24" height="24" viewBox="0 0 24 24" xmlns="http://www.w3.org/2000/svg">
  <path fill="currentColor" fill-rule="evenodd" clip-rule="evenodd" d="M5.2 5.6C5.45 5.25 6 5.35 6.1 5.75L7.05 11.45C8.45 10.55 10.15 10 12 10C13.85 10 15.55 10.55 16.95 11.45L17.9 5.75C18 5.35 18.55 5.25 18.8 5.6L20.45 7.95C21.35 9.5 21.85 11.25 21.85 13.05C21.85 18 17.45 21.95 12 21.95C6.55 21.95 2.15 18 2.15 13.05C2.15 11.25 2.65 9.5 3.55 7.95L5.2 5.6ZM9.4 14.85C9.4 15.75 8.85 16.45 8.15 16.45C7.45 16.45 6.9 15.75 6.9 14.85C6.9 13.95 7.45 13.25 8.15 13.25C8.85 13.25 9.4 13.95 9.4 14.85ZM15.85 16.45C16.55 16.45 17.1 15.75 17.1 14.85C17.1 13.95 16.55 13.25 15.85 13.25C15.15 13.25 14.6 13.95 14.6 14.85C14.6 15.75 15.15 16.45 15.85 16.45ZM10.7 17.85C10.95 17.7 11.25 17.8 11.4 18.05C11.55 18.3 11.75 18.4 12 18.4C12.25 18.4 12.45 18.3 12.6 18.05C12.75 17.8 13.05 17.7 13.3 17.85C13.55 18 13.65 18.3 13.5 18.55C13.2 19.05 12.65 19.4 12 19.4C11.35 19.4 10.8 19.05 10.5 18.55C10.35 18.3 10.45 18 10.7 17.85Z"/>
</svg>
